<svg id="visual" viewBox="0 0 900 600" width="900" height="600" xmlns="http://www.w3.org/2000/svg" xmlns:xlink="http://www.w3.org/1999/xlink" version="1.1"><rect x="0" y="0" width="900" height="600" fill="#FEFAE0"></rect><path d="M0 259L129 292L257 373L386 363L514 370L643 251L771 286L900 367L900 601L771 601L643 601L514 601L386 601L257 601L129 601L0 601Z" fill="#e9edc9"></path><path d="M0 406L129 368L257 370L386 385L514 349L643 322L771 321L900 411L900 601L771 601L643 601L514 601L386 601L257 601L129 601L0 601Z" fill="#e2e7c2"></path><path d="M0 468L129 398L257 409L386 378L514 373L643 413L771 475L900 387L900 601L771 601L643 601L514 601L386 601L257 601L129 601L0 601Z" fill="#dbe1bb"></path><path d="M0 449L129 472L257 463L386 513L514 461L643 486L771 512L900 494L900 601L771 601L643 601L514 601L386 601L257 601L129 601L0 601Z" fill="#d4dbb4"></path><path d="M0 516L129 504L257 533L386 551L514 526L643 500L771 504L900 536L900 601L771 601L643 601L514 601L386 601L257 601L129 601L0 601Z" fill="#ccd5ae"></path></svg>